<svg width="20" height="24" viewBox="0 0 20 24" fill="none" xmlns="http://www.w3.org/2000/svg">
<path d="M12.9406 1.34218C13.1021 1.23676 13.2718 1.1431 13.4492 1.06484C13.7302 0.941151 13.8577 0.612995 13.734 0.33202C13.61 0.0509869 13.282 -0.0765054 13.001 0.0473577C12.5082 0.264411 12.0694 0.567396 11.6824 0.912585C7.12503 -0.469636 2.94026 0.121172 2.23056 2.29088C1.88947 3.3343 1.62009 4.29892 2.28085 5.30879C1.40503 6.85813 1.6164 8.39729 1.87021 10.243C1.88988 10.3869 1.91014 10.5329 1.9298 10.681C1.98319 11.0787 1.63525 11.6923 1.29866 12.2856C0.792558 13.1771 0.269711 14.099 0.908578 14.5344C2.00046 15.2787 2.19029 16.7434 2.37392 18.1606C2.41741 18.4972 2.46266 18.8452 2.51903 19.1836C2.61632 19.7674 3.10873 20.0511 4.02465 20.0511C4.43212 20.0511 4.86699 20.0009 5.28792 19.9522C5.64868 19.9105 5.98925 19.8711 6.26215 19.8711C6.41457 19.8711 6.5337 19.8833 6.62624 19.9084C7.72661 20.2065 8.68801 22.4316 9.03566 23.7641C9.0637 23.8723 9.14694 23.9574 9.25447 23.9879C9.28286 23.996 9.31189 24 9.34058 24C9.42071 24 9.49903 23.9695 9.55839 23.9127L15.1987 18.5298C15.2862 18.4465 15.3182 18.3206 15.2816 18.2057C14.7835 16.6475 15.8185 15.1267 16.7317 13.7845C17.1302 13.1988 17.5066 12.6456 17.764 12.1008C18.1165 11.3551 18.2889 10.5466 18.3205 9.73204C18.8107 9.24771 19.0501 8.58303 19.2836 7.86853C19.9685 5.77497 17.1744 2.95516 12.9406 1.34218Z" fill="#9D8DF1"/>
</svg>
