<svg width="28" height="28" viewBox="0 0 28 28" fill="none" xmlns="http://www.w3.org/2000/svg">
<path d="M14 23.6C10.6667 23.6 7.72001 21.8933 6.00001 19.3333C6.04001 16.6666 11.3333 15.2 14 15.2C16.6667 15.2 21.96 16.6666 22 19.3333C20.28 21.8933 17.3333 23.6 14 23.6ZM14 4.66663C15.0609 4.66663 16.0783 5.08805 16.8284 5.8382C17.5786 6.58835 18 7.60576 18 8.66663C18 9.72749 17.5786 10.7449 16.8284 11.4951C16.0783 12.2452 15.0609 12.6666 14 12.6666C12.9391 12.6666 11.9217 12.2452 11.1716 11.4951C10.4214 10.7449 10 9.72749 10 8.66663C10 7.60576 10.4214 6.58835 11.1716 5.8382C11.9217 5.08805 12.9391 4.66663 14 4.66663ZM14 0.666626C12.249 0.666626 10.5152 1.0115 8.89756 1.68157C7.27989 2.35163 5.81003 3.33375 4.57192 4.57187C2.07143 7.07235 0.666672 10.4637 0.666672 14C0.666672 17.5362 2.07143 20.9276 4.57192 23.4281C5.81003 24.6662 7.27989 25.6483 8.89756 26.3184C10.5152 26.9884 12.249 27.3333 14 27.3333C17.5362 27.3333 20.9276 25.9285 23.4281 23.4281C25.9286 20.9276 27.3333 17.5362 27.3333 14C27.3333 6.62663 21.3333 0.666626 14 0.666626Z" fill="white"/>
</svg>
