<svg width="24" height="29" viewBox="0 0 24 29" fill="none" xmlns="http://www.w3.org/2000/svg">
<path d="M24 23.3333V24.6666H0V23.3333L2.66667 20.6666V12.6666C2.66667 8.53329 5.37333 4.89329 9.33333 3.71996C9.33333 3.58663 9.33333 3.46663 9.33333 3.33329C9.33333 2.62605 9.61429 1.94777 10.1144 1.44767C10.6145 0.947577 11.2928 0.666626 12 0.666626C12.7072 0.666626 13.3855 0.947577 13.8856 1.44767C14.3857 1.94777 14.6667 2.62605 14.6667 3.33329C14.6667 3.46663 14.6667 3.58663 14.6667 3.71996C18.6267 4.89329 21.3333 8.53329 21.3333 12.6666V20.6666L24 23.3333ZM14.6667 26C14.6667 26.7072 14.3857 27.3855 13.8856 27.8856C13.3855 28.3857 12.7072 28.6666 12 28.6666C11.2928 28.6666 10.6145 28.3857 10.1144 27.8856C9.61429 27.3855 9.33333 26.7072 9.33333 26" fill="white"/>
</svg>
