<svg width="20" height="20" viewBox="0 0 20 20" fill="none" xmlns="http://www.w3.org/2000/svg">
<path d="M6.66665 9.16699C6.20641 9.16699 5.83331 9.54008 5.83331 10.0003C5.83331 10.4606 6.20641 10.8337 6.66665 10.8337H13.3333C13.7936 10.8337 14.1666 10.4606 14.1666 10.0003C14.1666 9.54008 13.7936 9.16699 13.3333 9.16699H6.66665Z" fill="#EB5757"/>
<path fill-rule="evenodd" clip-rule="evenodd" d="M19.1666 9.99967C19.1666 15.0623 15.0626 19.1663 9.99998 19.1663C4.93737 19.1663 0.833313 15.0623 0.833313 9.99967C0.833313 4.93707 4.93737 0.833008 9.99998 0.833008C15.0626 0.833008 19.1666 4.93707 19.1666 9.99967ZM17.5 9.99967C17.5 14.1418 14.1421 17.4997 9.99998 17.4997C5.85785 17.4997 2.49998 14.1418 2.49998 9.99967C2.49998 5.85754 5.85785 2.49967 9.99998 2.49967C14.1421 2.49967 17.5 5.85754 17.5 9.99967Z" fill="#EB5757"/>
</svg>

