<svg width="24" height="24" viewBox="0 0 24 24" fill="none" xmlns="http://www.w3.org/2000/svg">
<path d="M8.18259 10.3234H2.38556C1.79861 10.3229 1.23585 10.0895 0.820746 9.67454C0.405646 9.25957 0.172113 8.69688 0.171387 8.10993V2.3849C0.172113 1.79795 0.405646 1.23526 0.820746 0.820292C1.23585 0.40532 1.79861 0.171962 2.38556 0.171417H8.18259C8.76942 0.172143 9.33201 0.405582 9.74696 0.820534C10.1619 1.23549 10.3953 1.79807 10.3961 2.3849V8.10993C10.3953 8.69676 10.1619 9.25935 9.74696 9.6743C9.33201 10.0893 8.76942 10.3227 8.18259 10.3234ZM2.38556 1.8857C2.25315 1.88588 2.12622 1.93851 2.03253 2.03207C1.93884 2.12563 1.88604 2.2525 1.88567 2.3849V8.10993C1.88604 8.24233 1.93884 8.3692 2.03253 8.46276C2.12622 8.55632 2.25315 8.60895 2.38556 8.60913H8.18259C8.31493 8.60895 8.4418 8.5563 8.53537 8.46272C8.62895 8.36914 8.68161 8.24227 8.68179 8.10993V2.3849C8.68161 2.25256 8.62895 2.12569 8.53537 2.03212C8.4418 1.93854 8.31493 1.88588 8.18259 1.8857H2.38556Z" fill="white"/>
<path d="M8.21078 23.8286H2.41376C1.82674 23.8278 1.26398 23.5943 0.848902 23.1793C0.433822 22.7642 0.200311 22.2014 0.199585 21.6144V15.8901C0.200311 15.3031 0.433844 14.7404 0.848944 14.3254C1.26404 13.9105 1.82681 13.6771 2.41376 13.6766H8.21078C8.79738 13.6777 9.35961 13.9113 9.77427 14.3262C10.1889 14.7411 10.4222 15.3035 10.4229 15.8901V21.6144C10.4224 22.2011 10.1892 22.7637 9.77451 23.1787C9.35983 23.5938 8.7975 23.8275 8.21078 23.8286ZM2.41376 15.3909C2.28135 15.391 2.15441 15.4437 2.06073 15.5372C1.96704 15.6308 1.91423 15.7577 1.91387 15.8901V21.6144C1.91405 21.7469 1.96678 21.874 2.06048 21.9677C2.15419 22.0614 2.28123 22.1141 2.41376 22.1143H8.21078C8.34319 22.1139 8.47005 22.0611 8.56361 21.9674C8.65717 21.8737 8.7098 21.7468 8.70998 21.6144V15.8901C8.7098 15.7577 8.65715 15.6309 8.56357 15.5373C8.46999 15.4437 8.34313 15.391 8.21078 15.3909H2.41376Z" fill="white"/>
<path d="M21.6151 23.8286H15.8181C15.231 23.8278 14.6683 23.5943 14.2532 23.1793C13.8381 22.7642 13.6046 22.2014 13.6039 21.6144V15.8901C13.6046 15.3031 13.8381 14.7404 14.2532 14.3254C14.6683 13.9105 15.2311 13.6771 15.8181 13.6766H21.6151C22.2019 13.6773 22.7645 13.9107 23.1795 14.3257C23.5944 14.7406 23.8278 15.3032 23.8286 15.8901V21.6144C23.828 22.2014 23.5947 22.7641 23.1797 23.1792C22.7647 23.5943 22.202 23.8278 21.6151 23.8286ZM15.8181 15.3943C15.6856 15.3945 15.5587 15.4471 15.465 15.5407C15.3713 15.6342 15.3185 15.7611 15.3182 15.8935V21.6178C15.3183 21.7504 15.3711 21.8774 15.4648 21.9711C15.5585 22.0648 15.6855 22.1175 15.8181 22.1177H21.6151C21.7475 22.1174 21.8743 22.0646 21.9679 21.9709C22.0615 21.8772 22.1141 21.7502 22.1143 21.6178V15.8901C22.1141 15.7577 22.0614 15.6309 21.9679 15.5373C21.8743 15.4437 21.7474 15.391 21.6151 15.3909L15.8181 15.3943Z" fill="white"/>
<path d="M18.72 10.3234C17.7181 10.316 16.7408 10.0121 15.9113 9.44998C15.0818 8.8879 14.4373 8.09283 14.059 7.16499C13.6807 6.23715 13.5856 5.21809 13.7856 4.23628C13.9856 3.25446 14.4719 2.35384 15.183 1.64795C15.8941 0.94207 16.7983 0.462523 17.7816 0.269768C18.7649 0.077013 19.7832 0.179679 20.7082 0.564823C21.6332 0.949967 22.4235 1.60035 22.9794 2.43397C23.5353 3.2676 23.832 4.24715 23.832 5.24914C23.8253 6.59939 23.2834 7.89186 22.3251 8.84311C21.3668 9.79435 20.0703 10.3267 18.72 10.3234ZM18.72 1.88914C18.0572 1.89658 17.4113 2.09994 16.8637 2.47364C16.3162 2.84734 15.8914 3.37466 15.6428 3.98924C15.3943 4.60382 15.3331 5.27818 15.467 5.92745C15.6009 6.57672 15.9238 7.17189 16.3952 7.63802C16.8665 8.10416 17.4653 8.42045 18.116 8.54707C18.7667 8.67369 19.4404 8.60498 20.0521 8.3496C20.6639 8.09422 21.1864 7.66358 21.554 7.11187C21.9216 6.56017 22.1177 5.91207 22.1178 5.24914C22.1123 4.35283 21.7515 3.4953 21.1145 2.86473C20.4775 2.23415 19.6164 1.88206 18.72 1.88571V1.88914Z" fill="white"/>
</svg>
