<svg width="24" height="24" viewBox="0 0 24 24" fill="none" xmlns="http://www.w3.org/2000/svg">
<path d="M17.7559 6.24411C17.9122 6.40041 18 6.6124 18 6.83344V9.61158C18 10.0719 17.6269 10.445 17.1668 10.445C16.7066 10.445 16.3336 10.0719 16.3336 9.61158V8.84497L14.4223 10.756C14.0968 11.0814 13.5693 11.0813 13.2439 10.7557C12.9186 10.4302 12.9187 9.90251 13.2442 9.57713L15.1546 7.66688H14.3881C13.9279 7.66688 13.5548 7.29374 13.5548 6.83344C13.5548 6.37315 13.9279 6 14.3881 6H17.1668C17.3878 6 17.5997 6.08781 17.7559 6.24411Z" fill="#C1C1C1"/>
<path d="M6 17.1668C6 17.3877 6.0878 17.5997 6.24408 17.7559C6.40036 17.9122 6.61232 18 6.83334 18H9.61245C10.0727 18 10.4458 17.6269 10.4458 17.1668C10.4458 16.7066 10.0727 16.3335 9.61245 16.3335H8.84495L10.756 14.4224C11.0813 14.097 11.0813 13.5694 10.7559 13.244C10.4305 12.9186 9.90279 12.9187 9.57734 13.2441L7.66667 15.1549V14.3893C7.66667 13.9291 7.29357 13.5561 6.83334 13.5561C6.3731 13.5561 6 13.9291 6 14.3893V17.1668Z" fill="#C1C1C1"/>
<path d="M1 6.09375C1 4.38512 2.35434 3 4.025 3H19.975C21.6457 3 23 4.38512 23 6.09375V17.9062C23 19.6149 21.6457 21 19.975 21H4.025C2.35434 21 1 19.6149 1 17.9062V6.09375ZM4.025 4.6875C3.2656 4.6875 2.65 5.31709 2.65 6.09375V17.9062C2.65 18.683 3.2656 19.3125 4.025 19.3125H19.975C20.7344 19.3125 21.35 18.683 21.35 17.9062V6.09375C21.35 5.31709 20.7344 4.6875 19.975 4.6875H4.025Z" fill="#C1C1C1"/>
</svg>
