<svg width="24" height="24" viewBox="0 0 24 24" fill="none" xmlns="http://www.w3.org/2000/svg">
<path d="M23.7579 5.89934L18.1006 0.241922C17.9457 0.0870304 17.7355 0 17.5164 0C17.2973 0 17.0871 0.0870304 16.9322 0.241922L0.419589 16.7546C0.270866 16.9035 0.184386 17.1033 0.177997 17.3136L0.000521023 23.1486C-0.00641938 23.3764 0.0810517 23.5969 0.242113 23.7581C0.397336 23.9132 0.60753 24 0.826318 24C0.834691 24 0.843063 23.9999 0.851546 23.9996L6.68633 23.8219C6.89663 23.8155 7.09658 23.7291 7.24541 23.5804L23.7581 7.06786C24.0806 6.74518 24.0806 6.22201 23.7579 5.89934ZM6.30846 22.1802L1.67889 22.3212L1.81979 17.6914L11.8585 7.65261L16.3477 12.1411L6.30846 22.1802ZM17.5162 10.9727L13.0269 6.48431L17.5163 1.99476L22.0051 6.48365L17.5162 10.9727Z" fill="#C1C1C1"/>
</svg>
