<svg width="18" height="19" viewBox="0 0 18 19" fill="none" xmlns="http://www.w3.org/2000/svg">
<path d="M16.3958 1.31236L10.786 8.5H10.5V9V16.88V16.9132L10.5044 16.9461C10.525 17.1007 10.4699 17.2522 10.3728 17.3408L10.3645 17.3484L10.3564 17.3564C10.1617 17.5512 9.84827 17.5512 9.65353 17.3564L7.64353 15.3464C7.52133 15.2242 7.47723 15.0693 7.49529 14.9383L7.49998 14.9043V14.87V9V8.5H7.214L1.60414 1.31236L1.60415 1.31236L1.60219 1.30988C1.43865 1.10306 1.47147 0.790632 1.68386 0.617216C1.80229 0.531781 1.90825 0.5 1.99998 0.5H16C16.0917 0.5 16.1977 0.531783 16.3161 0.617221C16.5285 0.790638 16.5613 1.10306 16.3978 1.30988L16.3958 1.31236Z" stroke="white"/>
</svg>
