<svg width="24" height="24" viewBox="0 0 24 24" fill="none" xmlns="http://www.w3.org/2000/svg">
<path d="M17.5 21.25H6.5C5.50544 21.25 4.55161 20.8549 3.84835 20.1517C3.14509 19.4484 2.75 18.4946 2.75 17.5V6.5C2.75 5.50544 3.14509 4.55161 3.84835 3.84835C4.55161 3.14509 5.50544 2.75 6.5 2.75H17.5C18.4946 2.75 19.4484 3.14509 20.1517 3.84835C20.8549 4.55161 21.25 5.50544 21.25 6.5V17.5C21.25 18.4946 20.8549 19.4484 20.1517 20.1517C19.4484 20.8549 18.4946 21.25 17.5 21.25ZM6.5 4.25C5.90326 4.25 5.33097 4.48705 4.90901 4.90901C4.48705 5.33097 4.25 5.90326 4.25 6.5V17.5C4.25 18.0967 4.48705 18.669 4.90901 19.091C5.33097 19.5129 5.90326 19.75 6.5 19.75H17.5C18.0967 19.75 18.669 19.5129 19.091 19.091C19.5129 18.669 19.75 18.0967 19.75 17.5V6.5C19.75 5.90326 19.5129 5.33097 19.091 4.90901C18.669 4.48705 18.0967 4.25 17.5 4.25H6.5Z" fill="white"/>
<path d="M3.49991 17.06C3.38942 17.0598 3.28029 17.0356 3.18012 16.989C3.07995 16.9423 2.99115 16.8744 2.91991 16.79C2.80987 16.6404 2.75918 16.4554 2.77765 16.2707C2.79612 16.086 2.88244 15.9147 3.01991 15.79L7.71991 11.89C8.48328 11.2568 9.46636 10.9519 10.454 11.0418C11.4417 11.1318 12.3535 11.6093 12.9899 12.37L14.1099 13.71C14.3022 13.9402 14.5386 14.1297 14.8052 14.2673C15.0718 14.4048 15.3632 14.4877 15.6623 14.511C15.9613 14.5343 16.2621 14.4976 16.5467 14.4029C16.8314 14.3083 17.0943 14.1577 17.3199 13.96L19.9999 11.56C20.0741 11.4943 20.1605 11.4439 20.2542 11.4116C20.3479 11.3793 20.447 11.3658 20.5459 11.3719C20.6448 11.3779 20.7415 11.4034 20.8306 11.4468C20.9196 11.4902 20.9993 11.5508 21.0649 11.625C21.1306 11.6991 21.181 11.7856 21.2132 11.8792C21.2455 11.9729 21.259 12.072 21.253 12.1709C21.2469 12.2698 21.2215 12.3665 21.1781 12.4556C21.1346 12.5447 21.0741 12.6243 20.9999 12.69L18.3099 15C17.9377 15.3267 17.5044 15.5763 17.035 15.7342C16.5656 15.8921 16.0695 15.9552 15.5755 15.9199C15.0815 15.8845 14.5994 15.7514 14.1573 15.5282C13.7152 15.3051 13.3218 14.9964 12.9999 14.62L11.8799 13.28C11.6899 13.049 11.4557 12.8583 11.191 12.7189C10.9264 12.5795 10.6366 12.4943 10.3387 12.4682C10.0407 12.4422 9.74058 12.4758 9.45576 12.5671C9.17094 12.6584 8.90719 12.8055 8.67991 13L3.99991 16.89C3.8608 17.0079 3.6821 17.0687 3.49991 17.06Z" fill="white"/>
</svg>
