<svg width="20" height="18" viewBox="0 0 20 18" fill="none" xmlns="http://www.w3.org/2000/svg">
<path d="M8.88303 16.3322L8.88231 16.3316C6.29733 14.0322 4.1924 12.1566 2.72787 10.399C1.26852 8.64763 0.5 7.07659 0.5 5.3951C0.5 2.6498 2.68642 0.5 5.5 0.5C7.09239 0.5 8.62637 1.2297 9.6237 2.36957L10 2.79964L10.3763 2.36957C11.3736 1.2297 12.9076 0.5 14.5 0.5C17.3136 0.5 19.5 2.6498 19.5 5.3951C19.5 7.07659 18.7315 8.64763 17.2721 10.399C15.8076 12.1566 13.7027 14.0322 11.1177 16.3316L11.117 16.3322L10 17.3297L8.88303 16.3322Z" stroke="#C1C1C1"/>
</svg>
