<svg width="16" height="20" viewBox="0 0 16 20" fill="none" xmlns="http://www.w3.org/2000/svg">
<path d="M6.617 13.2274C6.091 15.9814 5.45 18.6214 3.549 20.0004C2.963 15.8384 4.41 12.7134 5.083 9.39543C3.936 7.46543 5.221 3.58343 7.638 4.54043C10.613 5.71643 5.062 11.7124 8.788 12.4624C12.679 13.2434 14.267 5.71243 11.854 3.26343C8.369 -0.274572 1.708 3.18043 2.528 8.24543C2.727 9.48343 4.006 9.85843 3.039 11.5674C0.807999 11.0734 0.141999 9.31343 0.227999 6.96743C0.365999 3.12743 3.677 0.440428 6.999 0.0674279C11.2 -0.403572 15.143 1.61043 15.688 5.56143C16.301 10.0224 13.792 14.8544 9.299 14.5064C8.081 14.4114 7.571 13.8074 6.617 13.2274Z" fill="white"/>
</svg>
