<svg width="14" height="20" viewBox="0 0 14 20" fill="none" xmlns="http://www.w3.org/2000/svg">
<path d="M3.5 12.74V12.48L3.28719 12.3307C1.6032 11.1491 0.5 9.20822 0.5 7C0.5 5.27609 1.18482 3.62279 2.40381 2.40381C3.62279 1.18482 5.27609 0.5 7 0.5C8.72391 0.5 10.3772 1.18482 11.5962 2.40381C12.8152 3.62279 13.5 5.27609 13.5 7C13.5 9.20822 12.3968 11.1491 10.7128 12.3307L10.5 12.48V12.74V15C10.5 15.1326 10.4473 15.2598 10.3536 15.3536C10.2598 15.4473 10.1326 15.5 10 15.5H4C3.86739 15.5 3.74021 15.4473 3.64645 15.3536C3.55268 15.2598 3.5 15.1326 3.5 15V12.74ZM4.64645 19.3536C4.55268 19.2598 4.5 19.1326 4.5 19V18.5H9.5V19C9.5 19.1326 9.44732 19.2598 9.35355 19.3536C9.25979 19.4473 9.13261 19.5 9 19.5H5C4.86739 19.5 4.74021 19.4473 4.64645 19.3536Z" stroke="white"/>
</svg>
