<svg width="20" height="20" viewBox="0 0 20 20" fill="none" xmlns="http://www.w3.org/2000/svg">
<path d="M0.5 5.67647C0.5 4.46807 1.46472 3.5 2.64062 3.5H10.3594C11.5353 3.5 12.5 4.46806 12.5 5.67647V14.3235C12.5 15.5319 11.5353 16.5 10.3594 16.5H2.64062C1.46472 16.5 0.5 15.5319 0.5 14.3235V5.67647Z" stroke="white"/>
<path d="M17.9063 15.3727L15.5 12.4696V7.60379L17.9025 4.63195C17.9025 4.63194 17.9025 4.63194 17.9025 4.63193C17.9753 4.54186 18.0403 4.51344 18.0821 4.50443C18.1259 4.495 18.1779 4.49964 18.2355 4.52893C18.3506 4.58746 18.5 4.75986 18.5 5.07337V14.9266C18.5 15.2379 18.3522 15.4107 18.2373 15.4701C18.1799 15.4999 18.1281 15.5049 18.0846 15.496C18.0431 15.4876 17.9789 15.4603 17.9063 15.3728C17.9063 15.3728 17.9063 15.3728 17.9063 15.3727Z" stroke="white"/>
</svg>
