<svg width="24" height="24" viewBox="0 0 24 24" fill="none" xmlns="http://www.w3.org/2000/svg">
<g clip-path="url(#clip0_145_233)">
<path d="M8.18259 10.3234H2.38556C1.79861 10.3229 1.23585 10.0895 0.820746 9.67454C0.405646 9.25957 0.172113 8.69688 0.171387 8.10993V2.3849C0.172113 1.79795 0.405646 1.23526 0.820746 0.820292C1.23585 0.40532 1.79861 0.171962 2.38556 0.171417H8.18259C8.76942 0.172143 9.332 0.405582 9.74696 0.820534C10.1619 1.23549 10.3953 1.79807 10.3961 2.3849V8.10993C10.3953 8.69676 10.1619 9.25935 9.74696 9.6743C9.332 10.0893 8.76942 10.3227 8.18259 10.3234Z" fill="#9D8DF1"/>
<path d="M8.18259 24.152H2.38556C1.79861 24.1515 1.23585 23.9181 0.820746 23.5031C0.405646 23.0882 0.172113 22.5255 0.171387 21.9385V16.2135C0.172113 15.6265 0.405646 15.0638 0.820746 14.6489C1.23585 14.2339 1.79861 14.0005 2.38556 14H8.18259C8.76942 14.0007 9.332 14.2342 9.74696 14.6491C10.1619 15.0641 10.3953 15.6267 10.3961 16.2135V21.9385C10.3953 22.5253 10.1619 23.0879 9.74696 23.5029C9.332 23.9178 8.76942 24.1513 8.18259 24.152Z" fill="#9D8DF1"/>
<path d="M22.0112 24.152H16.2142C15.6272 24.1515 15.0645 23.9181 14.6494 23.5031C14.2343 23.0882 14.0007 22.5255 14 21.9385V16.2135C14.0007 15.6265 14.2343 15.0638 14.6494 14.6489C15.0645 14.2339 15.6272 14.0005 16.2142 14H22.0112C22.598 14.0007 23.1606 14.2342 23.5756 14.6491C23.9905 15.0641 24.224 15.6267 24.2247 16.2135V21.9385C24.224 22.5253 23.9905 23.0879 23.5756 23.5029C23.1606 23.9178 22.598 24.1513 22.0112 24.152Z" fill="#9D8DF1"/>
<path d="M18.72 10.3234C17.7181 10.316 16.7408 10.0121 15.9113 9.44998C15.0818 8.8879 14.4373 8.09283 14.059 7.16499C13.6807 6.23715 13.5856 5.21809 13.7856 4.23628C13.9856 3.25446 14.4719 2.35384 15.183 1.64795C15.8941 0.94207 16.7983 0.462523 17.7816 0.269768C18.7649 0.077013 19.7832 0.179679 20.7082 0.564823C21.6332 0.949967 22.4235 1.60035 22.9794 2.43397C23.5353 3.2676 23.832 4.24715 23.832 5.24914C23.8253 6.59939 23.2834 7.89186 22.3251 8.84311C21.3668 9.79435 20.0703 10.3267 18.72 10.3234Z" fill="#9D8DF1"/>
</g>
<defs>
<clipPath id="clip0_145_233">
<rect width="24" height="24" fill="white"/>
</clipPath>
</defs>
</svg>
