<svg width="24" height="15" viewBox="0 0 24 15" fill="none" xmlns="http://www.w3.org/2000/svg">
<path d="M12 1C12.7956 1 13.5587 1.31607 14.1213 1.87868C14.6839 2.44129 15 3.20435 15 4C15 4.79565 14.6839 5.55871 14.1213 6.12132C13.5587 6.68393 12.7956 7 12 7C11.2044 7 10.4413 6.68393 9.87868 6.12132C9.31607 5.55871 9 4.79565 9 4C9 3.20435 9.31607 2.44129 9.87868 1.87868C10.4413 1.31607 11.2044 1 12 1ZM5 3.5C5.36099 3.5 5.69973 3.57416 6.00671 3.71047C5.94427 5.03622 6.32521 6.33563 7.06151 7.40775C6.61073 8.06738 5.8569 8.5 5 8.5C4.33696 8.5 3.70107 8.23661 3.23223 7.76777C2.76339 7.29893 2.5 6.66304 2.5 6C2.5 5.33696 2.76339 4.70107 3.23223 4.23223C3.70107 3.76339 4.33696 3.5 5 3.5ZM19 3.5C19.663 3.5 20.2989 3.76339 20.7678 4.23223C21.2366 4.70107 21.5 5.33696 21.5 6C21.5 6.66304 21.2366 7.29893 20.7678 7.76777C20.2989 8.23661 19.663 8.5 19 8.5C18.1431 8.5 17.3893 8.06738 16.9385 7.40775C17.6748 6.33563 18.0557 5.03622 17.9933 3.71047C18.3003 3.57417 18.639 3.5 19 3.5ZM6 13.25C6 12.4695 6.55281 11.6671 7.65365 11.0318C8.74117 10.4043 10.2767 10 12 10C13.7233 10 15.2588 10.4043 16.3463 11.0318C17.4472 11.6671 18 12.4695 18 13.25V14.5H6V13.25ZM0.5 14.5V13.5C0.5 13.0505 0.808338 12.5436 1.53511 12.077C2.02427 11.763 2.66433 11.4957 3.41325 11.3059C3.14726 11.8927 3 12.5553 3 13.25V14.5H0.5ZM23.5 14.5H21V13.25C21 12.5553 20.8527 11.8927 20.5868 11.3059C21.3357 11.4957 21.9757 11.763 22.4649 12.077C23.1917 12.5436 23.5 13.0505 23.5 13.5V14.5Z" stroke="white"/>
</svg>
