<svg width="20" height="20" viewBox="0 0 20 20" fill="none" xmlns="http://www.w3.org/2000/svg">
<path d="M14.6667 4.66675H16H14.6667ZM6 0.666748H14C16.9455 0.666748 19.3333 3.05456 19.3333 6.00008V14.0001C19.3333 16.9455 16.9455 19.3334 14 19.3334H6C3.05448 19.3334 0.666667 16.9455 0.666667 14.0001V6.00008C0.666667 3.05456 3.05448 0.666748 6 0.666748ZM10 14.0001C7.79087 14.0001 6 12.2092 6 10.0001C6 7.79095 7.79087 6.00008 10 6.00008C12.2091 6.00008 14 7.79095 14 10.0001C14 12.2092 12.2091 14.0001 10 14.0001Z" stroke="#C1C1C1"/>
</svg>
