<svg width="20" height="24" viewBox="0 0 20 24" fill="none" xmlns="http://www.w3.org/2000/svg">
<path d="M11.8456 1.46007L12.6672 0.923539C12.8494 0.804582 13.043 0.697547 13.2474 0.607368L13.2478 0.6072C13.2759 0.594818 13.2888 0.561958 13.2765 0.533753C13.2638 0.505042 13.2307 0.492539 13.2027 0.504874L13.2026 0.504942C12.7665 0.696992 12.3711 0.968293 12.0153 1.28571L11.8059 1.47251L11.5373 1.39106C9.31166 0.716039 7.20133 0.531242 5.58507 0.764627C3.93148 1.0034 2.9682 1.64421 2.70582 2.44624L11.8456 1.46007ZM11.8456 1.46007L12.7626 1.80942M11.8456 1.46007L12.7626 1.80942M12.7626 1.80942C14.8296 2.59689 16.5193 3.6702 17.5991 4.77467C18.7017 5.90255 19.0613 6.9398 18.8084 7.71307L18.8083 7.71321C18.5709 8.43957 18.3613 8.98882 17.9691 9.37635L17.8285 9.51521L17.8209 9.71265C17.7915 10.4702 17.6315 11.211 17.312 11.8871L17.3119 11.8872C17.0745 12.3898 16.7226 12.9091 16.3183 13.5032M12.7626 1.80942L14.7718 18.2461M15.2816 18.2057C15.3182 18.3206 15.2862 18.4465 15.1987 18.5298L9.55839 23.9127C9.49903 23.9695 9.42071 24 9.34058 24C9.31189 24 9.28286 23.996 9.25447 23.9879C9.14694 23.9574 9.0637 23.8723 9.03566 23.7641C8.68801 22.4316 7.72661 20.2065 6.62624 19.9084C6.5337 19.8833 6.41457 19.8711 6.26215 19.8711C5.99065 19.8711 5.65217 19.9101 5.29347 19.9515L5.28792 19.9522C4.86699 20.0009 4.43212 20.0511 4.02465 20.0511C3.10873 20.0511 2.61632 19.7674 2.51903 19.1836C2.46266 18.8452 2.41741 18.4972 2.37392 18.1606C2.19029 16.7434 2.00046 15.2787 0.908578 14.5344C0.269711 14.099 0.792558 13.1771 1.29866 12.2856C1.63525 11.6923 1.98319 11.0787 1.9298 10.681C1.91522 10.5712 1.9003 10.4625 1.88555 10.3549C1.88041 10.3175 1.87529 10.2802 1.87021 10.243L13.4169 0.991429C13.4169 0.991417 13.4168 0.991405 13.4168 0.991394C13.3182 0.951914 13.2188 0.913089 13.1186 0.874943L12.9406 1.34218L13.214 1.76083C13.317 1.6936 13.4227 1.63258 13.5309 1.57869C17.4307 3.22 19.9361 5.87389 19.2836 7.86853C19.0501 8.58303 18.8107 9.24771 18.3205 9.73204C18.2889 10.5466 18.1165 11.3551 17.764 12.1008C17.5068 12.6452 17.1308 13.1979 16.7327 13.7831L16.7317 13.7845M15.2816 18.2057C14.7835 16.6477 15.8182 15.1271 16.7314 13.785L16.7317 13.7845M15.2816 18.2057L14.9811 18.3013L14.9807 18.3014L14.8052 18.3573C14.8052 18.3575 14.8053 18.3577 14.8054 18.3579L14.9811 18.3017L14.9814 18.3016L15.2816 18.2057ZM16.7317 13.7845L16.3184 13.5032L16.3183 13.5032M16.7317 13.7845L16.3183 13.5032M16.3183 13.5032L16.3041 13.5241C15.8568 14.1814 15.3462 14.9318 15.0161 15.7212C14.6922 16.4956 14.5215 17.3543 14.7718 18.2461M14.7718 18.2461L9.43574 23.3386C9.24132 22.6854 8.93423 21.8982 8.55053 21.206C8.32819 20.8049 8.07185 20.4206 7.78557 20.1102C7.50397 19.805 7.16022 19.535 6.75702 19.4258L6.75689 19.4257C6.60445 19.3845 6.4362 19.3711 6.26215 19.3711C5.96153 19.3711 5.59912 19.4129 5.25598 19.4525L5.23062 19.4554L5.23046 19.4555C4.80344 19.5049 4.39807 19.5511 4.02465 19.5511C3.6069 19.5511 3.35572 19.4844 3.21448 19.4031C3.09934 19.3367 3.03726 19.2515 3.01224 19.1015C2.9576 18.7735 2.91344 18.4343 2.8698 18.0966L2.86978 18.0964L2.86665 18.0723C2.77705 17.3806 2.67871 16.6214 2.45734 15.9405C2.23052 15.2429 1.8596 14.5775 1.19019 14.1213L1.19016 14.1213C1.13666 14.0848 1.12536 14.0573 1.11877 14.0249C1.10828 13.9734 1.10913 13.8778 1.15474 13.7194C1.24891 13.3923 1.47056 12.9956 1.73348 12.5325L1.73356 12.5323L1.74025 12.5205C1.90359 12.2326 2.0852 11.9125 2.2179 11.6119C2.34394 11.3263 2.47179 10.9621 2.42545 10.6152C2.41071 10.5042 2.39559 10.394 2.3808 10.2861C2.37568 10.2489 2.37061 10.2119 2.36561 10.1753L2.36555 10.1749C2.10801 8.3021 1.93591 6.93504 2.71612 5.55484L2.86594 5.2898L2.69924 5.03503C2.18209 4.24465 2.36091 3.50134 2.70579 2.44633L14.7718 18.2461Z" stroke="white"/>
</svg>
